<svg>
<path 
d="M144 97.679l-8.24-5.573 4.156-6.206-21.762-1.74-7.82 6.065-9.79-5.504-8.164.984-.096-2.158a61.111 61.111 0 0 0-.676-6.72c.035-.674.06-1.449.057-2.29 0-3.55-.479-8.253-2.583-11.388l.485-4.366-3.928-4.655c.63-1.26 1.35-2.474 2.152-3.632.135-.195.27-.384.414-.567 5.098-.37 9.12-4.574 9.12-9.715 0-.237 0-.475-.027-.71 0-.094-.019-.19-.03-.285.498.27 1.001.54 1.504.81.094.134.202.27.32.428l.024.03.151.186.048.057c.054.065.11.127.167.191l.038.044a10.661 10.661 0 0 0 .508.531l.202.19.057.05c.172.154.355.303.538.443l.059.043.231.16.075.048c.09.054.18.11.27.162l.032.019c.105.056.212.11.32.162l.054.021c.091.04.18.078.269.113l.083.03c.094.033.186.062.282.09l.06.015a4 4 0 0 0 .357.073h.014c.114.019.229.03.344.035h.078c.103.006.206.006.31 0h.067c.129-.007.257-.022.384-.046a4.236 4.236 0 0 0 1.695-.61c.131-.087.248-.196.345-.32.538-.707-.054-1.482-.054-1.482-.21-.502-1.571-.855-1.571-.855s-4.304-1.803-4.304-3.239c0-1.435-1.076-8.883-12.184-10.586 0 0-7.225-.407-9.256 3.473l-.043.454c-.597.375-1.092 1.128-1.681 1.349-.255.055-.5.146-.73.27v-.052a.696.696 0 0 0-.164.214 2.164 2.164 0 0 0-.223.81c-.06.343-.18.675-.352.979a2.11 2.11 0 0 1-.162.248l-.045.073a1.96 1.96 0 0 0 .914-.149 4.58 4.58 0 0 1-.269 1.08.893.893 0 0 0 .829-.497v-.021l.035-.049c.067-.125.123-.256.167-.391l-.03.032c.054-.175.102-.353.161-.526a.827.827 0 0 1 .132-.27.65.65 0 0 1 .557-.186l-.11 2.34h.048a3.16 3.16 0 0 1-.237.49c-.382.621-1.076 1.045-1.331 1.725-.11.328-.152.675-.124 1.02 0 .202.024.407.04.61v-.016c.038.54.049 1.052-.242 1.487-.199.296-.519.52-.63.858a.839.839 0 0 0-.04.291c.022.296.084.587.183.866a.038.038 0 0 0 0-.016c.068.205.083.424.046.637-.12.54-.775.99-.742 1.506a.582.582 0 0 0 .03.2c.125.251.343.444.607.54.415.236.891.341 1.367.301.178-.032.35-.091.51-.175a35.09 35.09 0 0 1-.577 1.27c-.03.066-.062.13-.095.195 0 0-1.662-1.114-2.606 1.158a5.05 5.05 0 0 0-.584 1.522 3.63 3.63 0 0 1-.2.626 4.02 4.02 0 0 1-1.796 1.619c-1.926.885-9.706 10.618-9.843 13.139a14.746 14.746 0 0 1-.495 2.909 17.363 17.363 0 0 0-.463 6.878c.096.744.256 1.478.476 2.194.826 2.518 1.378 7.216 1.378 7.216l.893 8.155a23.28 23.28 0 0 0 .145 3.37c-.912 1.044-4.573 5.397-3.174 6.582 1.076.933 2.959.78 4.016.588-.89 2.21-2.292 6.053-2.477 8.692-.27 3.905.46 9.078 1.614 11.064 1.154 1.986 5 7.08 5 7.08s-.18 6.99 1.195 9.529c1.374 2.54 1.929 7.807 1.929 7.807s1.283 4.447.64 6.082c-.643 1.635 1.192 2.995-.735 4.083-1.926 1.087-4.39 25.598-4.39 25.598s-.992 16.064 0 16.881c.053.04.11.073.17.1v5.397s-.689 1.134 2.111 1.363c1.918.154 7.355.502 10.58.704l2.5.157s5.918 1.182 8.532 0c2.615-1.182 7.25-1.155 6.561-4.277a8.905 8.905 0 0 0-.365-1.25c-.756-1.937-2.04-2.159-4.404-2.698-.137-.03-.269-.057-.39-.079-2.491-.434-3.309.729-4.705-.785-1.213-1.309-5.076-2.774-6.392-3.238.033-.097.073-.192.105-.291a1.967 1.967 0 0 1-.998-.489l3.565.227 2.122.132s5.03 1.007 7.263 0c2.233-1.006 6.16-.98 5.574-3.632a7.63 7.63 0 0 0-.31-1.063c-.642-1.646-1.734-1.827-3.744-2.283-.115-.025-.223-.049-.33-.068-2.118-.37-2.812.618-3.998-.666-1.017-1.096-4.226-2.324-5.38-2.742 0-.599-.807-1.452-1.316-2.307-.597-.999.506-4.493.506-4.493l.63-14.499c.24-.107.493-.18.753-.216 0 0 2.846-2.725 2.203-5.629-.131-.878-.2-1.765-.205-2.653.937-.871 2.225-2.158 2.591-2.952.597-1.292 0-7.555 0-7.555v-23.95l4.761.483 4.32.446 1.316.135 4.32.437 9.93 1.006 8.946-1.7 3.871-.734 7.96-1.51V99.043L144 97.68zm-65.533-64.74l-.554-.06c.183.009.377.044.554.06z"
></path>
</svg>